<svg xmlns="http://www.w3.org/2000/svg" version="1.1" xmlns:xlink="http://www.w3.org/1999/xlink" xmlns:svgjs="http://svgjs.dev/svgjs" width="1500" height="425" viewBox="0 0 1500 425"><g transform="matrix(1,0,0,1,0.25491573033696113,-0.6433807016710773)"><svg viewBox="0 0 356 101" data-background-color="#dee5ed" preserveAspectRatio="xMidYMid meet" height="425" width="1500" xmlns="http://www.w3.org/2000/svg" xmlns:xlink="http://www.w3.org/1999/xlink"><g id="tight-bounds" transform="matrix(1,0,0,1,-0.06049999999996203,0.15289753145594887)"><svg viewBox="0 0 356.12052 100.69420493708807" height="100.69420493708807" width="356.12052"><g><svg viewBox="0 0 356.12052 100.69420493708807" height="100.69420493708807" width="356.12052"><g><svg viewBox="0 0 356.12052 100.69420493708807" height="100.69420493708807" width="356.12052"><g><path d="M0 100.694v-100.694h356.121v100.694z" fill="#6c4d38" stroke="transparent" stroke-width="0" rx="0%" data-fill-palette-color="tertiary"></path><path d="M3.283 97.411v-94.128h349.554v94.128z" fill="#dee5ed" stroke="transparent" stroke-width="0" rx="0%" data-fill-palette-color="quaternary"></path><path d="M9.85 90.844v-80.994h336.421v80.994z" fill="#6c4d38" stroke="transparent" stroke-width="0" data-fill-palette-color="tertiary"></path></g><g transform="matrix(1,0,0,1,19.69974,19.69974)" id="textblocktransform"><svg viewBox="0 0 316.72104 61.294724937088084" height="61.294724937088084" width="316.72104" id="textblock"><g><svg viewBox="0 0 316.72104 61.294724937088084" height="61.294724937088084" width="316.72104"><g transform="matrix(1,0,0,1,0,0)"><svg width="316.72104" viewBox="4.65 -32.1 166.88 32.300000000000004" height="61.294724937088084" data-palette-color="#dee5ed"><path d="M22.7-3.5L22.95-3.1 22.65 0 4.65 0 4.9-9.65 4.65-32.05 22.7-32.05 22.9-31.65 22.6-28.55 15.05-28.7 8.7-28.6 8.6-18.1 14.6-18 19.9-18.15 20.2-17.8 19.85-14.7 14.25-14.8 8.55-14.75 8.5-10 8.65-3.35 15-3.3 22.7-3.5ZM36.1-15L36.45-14.65 36.45-12.15 24.4-10.4 24-10.8 24-13.3 36.1-15ZM69.65-32.05L72.8 0 69.2 0 68.45-9.75 66.75-25.7 66.4-25.7 57.5-3.7 54.2-3.7 45.75-25.7 45.35-25.7 43.65-10.05 42.8 0 39.4 0 42.75-32.05 47.3-32.05 48.95-27.15 55.9-8.9 56.2-8.9 63.5-27.45 65.15-32.05 69.65-32.05ZM98.54-3.5L98.79-3.1 98.49 0 80.49 0 80.74-9.65 80.49-32.05 98.54-32.05 98.74-31.65 98.44-28.55 90.89-28.7 84.54-28.6 84.44-18.1 90.44-18 95.74-18.15 96.04-17.8 95.69-14.7 90.09-14.8 84.39-14.75 84.34-10 84.49-3.35 90.84-3.3 98.54-3.5ZM118.04-16.7Q124.84-15.35 124.84-8.95L124.84-8.95Q124.84-4.4 121.54-2.1 118.24 0.2 111.69 0.2L111.69 0.2Q107.29 0.2 104.64 0L104.64 0 104.59 0 104.84-9.65 104.59-32.05 113.49-32.1Q117.99-32.1 120.41-30.1 122.84-28.1 122.84-24.3L122.84-24.3Q122.84-21.6 121.59-19.65 120.34-17.7 118.04-16.7L118.04-16.7ZM118.74-23.85Q118.74-26.45 117.31-27.63 115.89-28.8 112.69-28.8L112.69-28.8 108.64-28.8 108.54-18.05 114.04-17.9Q118.74-19 118.74-23.85L118.74-23.85ZM112.29-3.15Q116.39-3.15 118.59-4.7 120.79-6.25 120.79-9.15L120.79-9.15Q120.79-14.05 114.64-14.75L114.64-14.75 108.49-14.7 108.44-10 108.59-3.3Q110.54-3.15 112.29-3.15L112.29-3.15ZM149.49-3.5L149.74-3.1 149.44 0 131.44 0 131.69-9.65 131.44-32.05 149.49-32.05 149.69-31.65 149.39-28.55 141.84-28.7 135.49-28.6 135.39-18.1 141.39-18 146.69-18.15 146.99-17.8 146.64-14.7 141.04-14.8 135.34-14.75 135.29-10 135.44-3.35 141.79-3.3 149.49-3.5ZM171.23-3.35L171.53-3 171.19 0 155.38 0 155.63-9.65 155.38-32.05 159.48-32.05 159.23-10 159.38-3.35 171.23-3.35Z" opacity="1" transform="matrix(1,0,0,1,0,0)" fill="#dee5ed" class="wordmark-text-0" data-fill-palette-color="quaternary" id="text-0"></path></svg></g></svg></g></svg></g></svg></g><g></g></svg></g><defs></defs></svg><rect width="356.12052" height="100.69420493708807" fill="none" stroke="none" visibility="hidden"></rect></g></svg></g></svg>